<svg xmlns="http://www.w3.org/2000/svg" width="350" height="350"><path fill="#fdfdfd" d="M0 0h350v350H0Z"/><path fill="#0c1c3b" d="M120.063 70.625l3.22-.15c10.09 1.42 16.61 7.72 23.4 14.84.41.41.41.41 2.44 2.47 4.23 4.34 8.28 8.78 12.24 13.36 2.57 2.91 5.31 5.63 8.08 8.36.27.26.27.26 1.63 1.62 1.31 1.29 2.62 2.58 3.93 3.88 5.34-4.25 9.86-9.01 14.44-14.04 3.73-4.1 7.59-8.03 11.55-11.91 1.97-2.01 3.73-4.12 5.51-6.31 4.35-4.97 8.84-8.16 15.46-9.22 5.92-.29 10.5.31 15.35 3.84 5.64 5.46 7.81 11.47 8.03 19.15.18 14.96-4.28 22.04-14.63 32.71-2.59 2.68-5.14 5.4-7.69 8.12-1.39 1.47-2.77 2.94-4.15 4.41-4.8 5.08-9.51 10.22-14.15 15.44-.57.59-1.14 1.19-1.72 1.81h-1v-12c-4.2 2.51-6.24 4.08-9.32 7.62-.77.88-1.54 1.76-2.33 2.66-.78.9-1.55 1.79-2.35 2.72-1.48 1.69-2.96 3.37-4.44 5.06-.64.73-1.28 1.46-1.93 2.22-2.29 2.41-3.48 2.69-6.82 3.22-8.06-1.06-12.7-9.73-17.53-15.7-2.2-2.7-4.43-5.36-6.72-7.99-.64-.74-1.28-1.47-1.93-2.23-1.63-1.58-1.63-1.58-3.63-1.58l-.03 1.86c-.08 6.49-.18 12.98-.29 19.47-.04 2.42-.07 4.83-.1 7.24-.44 33.01-.44 33.01-4.71 48.43-.18.69-.36 1.38-.55 2.09-.43 1.64-.87 3.27-1.32 4.91-1.03-3.27-.97-5.87-.56-9.26.1-.89.2-1.78.3-2.7.05-.34.05-.34.26-2.04-.23 1.11-.46 2.22-.7 3.36-1.59 7.38-3.11 14.34-6.83 20.98-1.19 2.14-2.23 4.25-3.25 6.46-4.06 8.7-8.24 15.47-15.22 22.2-.66-.34-1.32-.66-2-1 1.15-1.49 1.15-1.49 7-9-.66.65-1.32 1.31-2 2-.23.22-.23.22-1.38 1.36-1.2 1.21-2.39 2.44-3.56 3.68-.68.71-1.36 1.41-2.06 2.14-.64.68-1.28 1.35-1.94 2.05-2.25 1.92-4.27 2.82-7.06 3.77.72-.71 1.44-1.41 2.18-2.13 2.82-2.8 5.31-5.8 7.82-8.87-.33.33-.66.65-1 1-16.07 16-16.07 16-25 16v-2c.31-.15.31-.15 1.9-.89 5.9-2.82 11.03-5.99 16.1-10.11-3.62 1.72-6.87 3.84-10.2 6.07-.3.15-.3.15-1.8.93-.66-.34-1.32-.66-2-1 .31-.24.31-.24 1.9-1.44 15.68-12.11 15.68-12.11 17.1-20.56 1.18-2.45 2.58-4.68 4-7-.53.66-1.06 1.32-1.61 2.01-2.13 2.66-4.26 5.32-6.39 7.99-.62.84-1.24 1.68-1.88 2.55-7.7 8.89-20.92 16.03-32.12 19.45-2.23-.43-2.23-.43-4-1 2.1-1.15 4.2-2.3 6.31-3.44.59-.33 1.19-.65 1.8-.99 2.61-1.41 5.07-2.63 7.89-3.57v-2c-.45.34-.9.69-1.36 1.05-3.49 2.63-6.16 4.54-10.64 4.95v-2c.78-.36 1.56-.71 2.37-1.07 4.89-2.42 9.22-5.75 13.63-8.93-.99.65-1.98 1.31-3 2-2.05.19-2.05.19-4.19.12l-3.81-.12c1.65-1.65 3.3-3.31 5-5-1 0-1 0-2.94 1.5-2.06 1.5-2.06 1.5-4.06 1.5v2c-1.46.19-2.92.38-4.38.56-.81.1-1.62.21-2.46.31-2.16.13-2.16.13-4.16-.87-1.92-.03-3.84 0-5.75.06-4.51.05-8.07-.21-12.25-2.06v-1c.75-.05 1.49-.1 2.26-.15.5-.04.5-.04 2.99-.23.48-.03.48-.03 2.95-.21 2.69-.4 4.47-1.05 6.8-2.41h-4v-2c.99-.25 1.98-.5 3-.76 5.83-1.68 11.85-3.74 15-9.24-.31.32-.31.32-1.88 2-2.12 2-2.12 2-4.12 2 .98-2.2 1.74-3.78 3.56-5.38 2.05-2.32 1.96-4.59 2.44-7.62.94-2.03 1.92-4.04 3-6-.22.26-.22.26-1.32 1.6-3.56 4.23-6.75 7.82-11.68 10.4-.99-.34-1.98-.66-3-1 4.75-4 4.75-4 7-4 .27-.57.53-1.13.81-1.7 1.27-2.47 2.71-4.77 4.19-7.12 2.46-4.04 3.99-7.57 5-12.18-.99 1.31-1.98 2.63-3 4-.66-.34-1.32-.66-2-1 .37-.71.75-1.41 1.13-2.14 4.04-7.78 7.09-15.57 9.87-23.86-1.22 2.41-2.4 4.83-3.55 7.27l-1.77 3.66c-.28.61-.56 1.22-.85 1.84-2.08 4.28-4.36 7.08-7.83 10.23 1.09-3.68 2.49-7.02 4.18-10.44 10.94-23.98 15.43-51.54 20.59-77.25.25-1.19.49-2.38.73-3.6 1.21-5.96 2.4-11.92 3.55-17.89.45-2.22.89-4.43 1.33-6.65.19-1.01.38-2.02.58-3.06 1.56-7.64 3.89-13.66 10.16-18.55 4.13-2.24 7.29-2.8 11.94-2.94"/><path fill="#fdfdfd" d="M0 0h350v350h-65v-1c.38-.03.38-.03 2.28-.16 12.33-1.31 23.63-6.65 33.14-14.61 1.58-1.23 1.58-1.23 3.66-2.14 2.42-1.37 2.78-2.59 3.92-5.09q1.845-2.25 3.75-4.44c13.25-16.45 13.7-35.4 13.65-55.5.01-2.17.02-4.35.02-6.52.02-5.87.02-11.73.02-17.6-.01-4.91 0-9.82 0-14.74.02-11.59.02-23.19.01-34.78-.02-11.93 0-23.86.03-35.79.02-10.28.02-20.56.02-30.83 0-6.13 0-12.25.01-18.37q.03-8.64 0-17.28c-.01-2.1 0-4.21.01-6.31.1-21.45-3.85-40.59-19.03-56.69-11.87-11.79-27.73-19.29-44.48-19.3-.92-.01-1.84-.01-2.79-.02-3.08-.01-6.17-.02-9.26-.02l-6.63-.03c-7.27-.02-14.54-.04-21.81-.05-2.51-.01-5.02-.01-7.52-.02-10.43-.02-20.86-.04-31.29-.05-2.71 0-5.41-.01-8.12-.01h-2.04c-10.86-.01-21.73-.05-32.6-.09-11.18-.04-22.36-.07-33.54-.07-6.27 0-12.53-.02-18.8-.05-5.91-.03-11.81-.04-17.72-.02-2.16 0-4.32-.01-6.47-.03-21.57-.17-37.92 4.06-54.08 19.24C11.35 45.81 8.53 65.37 8.61 89.78c0 2.17-.01 4.34-.01 6.51-.02 5.85-.01 11.71 0 17.56 0 6.15 0 12.3-.01 18.44 0 10.32 0 20.64.02 30.96.02 11.9.01 23.81-.01 35.72q-.015 15.375 0 30.75c0 6.11 0 12.22-.01 18.33-.01 5.74 0 11.48.02 17.23 0 2.1 0 4.2-.01 6.3-.03 10.51-.05 20.35 3.4 30.42.11.33.11.33.66 2.01 5.59 15.94 16.81 29.29 31.49 37.64 7.53 3.57 15.6 6.17 23.85 7.35v1H0Z"/><path fill="#7146f3" d="M245 131c.09 15.33.16 30.65.21 45.98.02 7.11.05 14.23.09 21.35.04 6.21.07 12.41.08 18.62 0 3.28.02 6.57.04 9.85.03 3.68.04 7.35.03 11.03.01.53.01.53.05 3.25-.05 8.37-1.85 15.61-6.26 22.78-3.09 2.95-6.49 5.14-10.12 7.39-1.52.96-3.05 1.92-4.58 2.88-.76.48-1.52.95-2.31 1.44a215 215 0 0 0-6.18 4.14 617 617 0 0 0-6.8 4.71c-4.21 2.05-6.62 2-11.25 1.58-4.08-2.4-5.57-4.57-7-9-.27-2.94-.27-2.94-.29-6.22-.01-1.24-.03-2.47-.04-3.75 0-1.34 0-2.68-.01-4.02 0-1.38-.01-2.77-.02-4.16-.01-2.9-.01-5.8-.01-8.7 0-3.71-.03-7.41-.06-11.11-.02-2.86-.03-5.73-.03-8.59 0-1.36-.01-2.73-.02-4.09-.15-14.54-.15-14.54 4.48-20.36 2.36-1.86 2.36-1.86 4.75-3.2 2.93-2.11 4.09-3.01 4.81-6.6-.03-3.38-.24-6.71-.5-10.08-.21-8.82.22-14.9 6.26-21.63 2.82-2.74 5.7-5.36 8.73-7.87 2.5-2.08 4.75-4.35 7.01-6.68l2.06-2.03c3.74-3.8 7.18-7.85 10.58-11.96.53-.65 1.06-1.29 1.61-1.95.47-.58.94-1.16 1.43-1.75C243 131 243 131 245 131"/><path fill="#5085fb" d="M249 105c6.12-.17 9.11-.21 14 4 2.61 3.64 3.38 6.13 3.39 10.58l.03 3.37c-.01 1.21-.01 2.42-.02 3.67.01 1.28.02 2.56.02 3.88.02 3.51.02 7.02.02 10.53-.01 2.94 0 5.88 0 8.82.02 6.93.02 13.87.01 20.8-.02 7.14 0 14.27.03 21.41.02 6.14.02 12.28.02 18.42 0 3.66 0 7.32.01 10.98.02 4.09.01 8.18-.01 12.28l.03 3.63c-.09 10.18-2.38 18.33-9.5 25.83-7.19 6.39-16.95 10.77-26.03 13.8l-3-1c.32-.21.32-.21 1.94-1.25 7.93-5.29 15.45-11.16 18.06-20.75.46-4.82.44-9.64.43-14.47l.03-4.41c.03-3.97.04-7.94.05-11.92.01-4.15.03-8.31.06-12.47.04-7.86.07-15.73.09-23.6.03-8.95.07-17.91.12-26.87.09-18.42.16-36.84.22-55.26"/><path fill="#ebedef" d="M86.448 7.369c2.22-.01 4.44-.01 6.65-.02 5.98-.02 11.96-.01 17.93.01 6.28.02 12.56.01 18.84 0 10.54 0 21.07.02 31.61.04 10.81.03 21.62.04 32.44.02 13.07-.01 26.15-.01 39.23.01h14.93c5.86-.01 11.73 0 17.59.03h6.43c21.97-.07 39.36 5.01 55.28 20.76 16.18 17.17 19.08 36.82 19.01 59.38 0 2.17.01 4.34.02 6.52.01 5.88 0 11.76-.01 17.63 0 6.17 0 12.35.01 18.52 0 10.36 0 20.72-.02 31.09-.01 11.95-.01 23.9.01 35.86.01 10.29.01 20.57.01 30.86-.01 6.14-.01 12.27 0 18.4.01 5.77 0 11.55-.01 17.32-.01 2.1-.01 4.21 0 6.32.04 14.41.03 29.11-7.02 42.13-.35.66-.7 1.32-1.05 2.01-8.74 16.11-23.1 28.04-40.64 33.62-7.14 2.02-14.41 2.27-21.78 2.27-.88 0-1.76.01-2.67.01-2.94.01-5.88.01-8.81.02-2.12 0-4.23.01-6.34.02-6.93.02-13.85.03-20.78.04-2.39 0-4.78.01-7.17.01-11.23.02-22.47.04-33.7.04-12.94.01-25.88.04-38.82.08-10.02.03-20.04.04-30.06.05-5.97 0-11.95.01-17.92.03-5.63.03-11.26.03-16.89.02-2.05 0-4.1.01-6.16.02-23.62.15-42.37-4.7-59.81-21.65-12.59-13.36-19.11-30.14-19.05-48.36 0-.91 0-1.81-.01-2.74-.01-3-.01-6-.01-9 0-2.16-.01-4.32-.02-6.49-.02-5.85-.02-11.71-.02-17.56 0-3.67-.01-7.33-.01-11-.02-12.8-.03-25.61-.03-38.41 0-11.91-.02-23.81-.05-35.72-.03-10.24-.04-20.49-.04-30.73 0-6.11 0-12.22-.02-18.33-.02-5.75-.02-11.5-.01-17.25.01-2.1 0-4.2-.01-6.3-.12-21.85 3.52-40.11 18.5-56.95.59-.69 1.19-1.37 1.8-2.08 16.16-17.51 36.01-20.68 58.65-20.55m-38.32 8.19c-.69.35-1.38.71-2.09 1.07-14.89 7.86-27.31 21.07-32.67 37.27-3.54 12.64-3.94 24.97-3.89 38.01 0 2.14-.01 4.27-.02 6.41-.01 5.74-.01 11.49 0 17.23.01 6.05.01 12.09 0 18.13-.01 10.14 0 20.28.02 30.42.02 11.69.02 23.38-.01 35.07-.01 10.08-.02 20.16-.01 30.23.01 6 .01 12.01 0 18.01-.01 5.64-.01 11.28.02 16.92 0 2.06 0 4.12-.01 6.18-.06 15.18 1.33 28.8 8.53 42.49.39.77.77 1.55 1.17 2.34 8.15 15.08 21.88 25.13 38 30.15 7.58 2.21 15.09 2.66 22.94 2.66.88 0 1.76.01 2.67.01 2.95.01 5.89.01 8.83.02 2.11 0 4.23.01 6.35.02 6.93.02 13.87.03 20.8.04 2.39 0 4.79.01 7.18.01 11.24.02 22.49.04 33.73.04 12.96.01 25.91.04 38.87.08 10.03.03 20.06.04 30.09.05 5.98 0 11.97.01 17.95.03 5.63.03 11.26.03 16.9.02 2.05 0 4.11.01 6.17.02 11.51.07 21.45-.42 32.35-4.49.72-.26 1.44-.53 2.18-.8 16.27-6.53 27.92-19.48 34.76-35.4 3.7-9.77 5.21-19.37 5.2-29.77.01-.88.01-1.76.01-2.67.01-2.94.01-5.88.01-8.82.01-2.11.01-4.23.02-6.34.01-5.73.02-11.47.02-17.2.01-3.59.01-7.18.01-10.76q.03-16.86.03-33.72c.01-12.95.02-25.9.05-38.84.02-10.03.03-20.05.03-30.08.01-5.98.01-11.96.03-17.93.02-5.64.02-11.27.01-16.9 0-2.05 0-4.11.01-6.17.14-29.9.14-29.9-6.99-42.97-.35-.66-.69-1.32-1.05-2-3.28-6.01-7.38-10.9-12.33-15.63-.71-.72-1.42-1.43-2.15-2.17-5.63-5.41-11.76-8.65-18.85-11.83-.67-.33-1.34-.66-2.04-1-7.03-3.34-14.71-3.15-22.33-3.13-.91 0-1.82-.01-2.76-.01-3.03-.01-6.07 0-9.1-.00010351562627874955-2.19-.01-4.37-.01-6.55-.01-5.92-.01-11.84-.02-17.76-.02h-11.1c-13.58-.01-27.16-.01-40.74-.01-10.04 0-20.07-.01-30.1-.02-11.67-.02-23.34-.03-35-.03-6.17 0-12.34 0-18.51-.01-5.8-.01-11.61-.01-17.41 0-2.13 0-4.25 0-6.38-.01-2.91-.01-5.82 0-8.72 0-.84 0-1.68-.01-2.54-.01-8.65.05-16.15 1.89-23.83 5.82"/><path fill="#9fc3fd" d="M270 130c6.29.81 8.62 1.52 13 6 2.63 4.71 2.29 9.55 2.27 14.79.01.49.01.49.02 2.97.01 3.24.01 6.48.01 9.72 0 2.26.01 4.52.01 6.78.01 4.73.01 9.47.01 14.2-.01 6.06.01 12.11.03 18.16.01 4.67.02 9.33.01 14 0 2.23.01 4.46.02 6.69.01 3.13 0 6.26-.01 9.38.01.46.01.46.03 2.77-.06 7.4-1.42 13.61-5.59 19.79-6.13 6-12.56 8.67-20.81 10.75.4-.5.8-.99 1.21-1.5 5.71-7.33 8.88-14.07 8.95-23.51 0-.49 0-.49.03-2.97 0-1.07.01-2.14.02-3.24l.03-3.43c.03-3.74.05-7.47.08-11.21l.06-7.78c.05-6.13.09-12.26.14-18.38.05-6.98.1-13.96.16-20.94.11-14.34.22-28.69.32-43.04"/><path fill="#d9ebfd" d="M289 156c6.62-.16 6.62-.16 9.75 2.69.57.5 1.14 1 1.73 1.51 3.52 4.18 3.78 8.42 3.81 13.73 0 .34 0 .34.02 2.05.02 2.23.02 4.46.03 6.69 0 1.56.01 3.12.02 4.68.01 3.27.01 6.54.01 9.81 0 4.17.03 8.34.06 12.51.02 3.22.03 6.45.03 9.67 0 1.54.01 3.07.02 4.61.1 10 0 19.26-7.17 26.93-3.89 2.49-7.87 4.75-12.31 6.12l-2-1c.35-.48.71-.96 1.07-1.46 5.59-9.06 4.66-18.93 4.64-29.2.01-2.01.03-4.01.04-6.01.04-5.25.05-10.49.06-15.74.01-5.36.04-10.72.08-16.09.06-10.5.1-21 .11-31.5"/><path fill="#252b3c" d="M107 255l2 2h2c.73 1.74.73 1.74 1 4-1.48 2.07-1.48 2.07-3.62 4.12l-2.11 2.08c-2.35 1.86-4.44 2.84-7.27 3.8.36-.35.36-.35 2.19-2.12 2.81-2.81 5.31-5.8 7.81-8.88l-1 1c-16.07 16-16.07 16-25 16v-2c.31-.15.31-.15 1.91-.88 5.89-2.83 11.02-6 16.09-10.12-3.62 1.73-6.87 3.85-10.2 6.07q-.885.465-1.8.93l-2-1c.63-.5 1.26-.99 1.91-1.5 4.97-3.95 9.82-7.96 14.5-12.25C105 255 105 255 107 255"/><path fill="#ebecee" d="M110 239l1 3c-.96 1.65-.96 1.65-2.38 3.38-1.73 2.12-2.57 3.3-3.03 6.03-1.45 6.35-8.32 11.84-13.34 15.71-3.18 1.84-4.68 2.7-8.25 1.88l-2-3 2.67-1.79c1.17-.8 2.34-1.6 3.52-2.4.58-.38 1.15-.77 1.75-1.17 7.96-5.45 15.51-13.07 20.06-21.64"/><path fill="#efeffd" d="M243 254l3 2 2 1c-5.55 9.85-12.69 15.79-22 22-2.69-.38-2.69-.38-5-1v-3c3.22-2.13 6.49-4.03 9.87-5.89 6.34-3.7 9.81-8.14 12.13-15.11"/><path fill="#1f263e" d="M85 257l2 2c2.12.62 2.12.62 4 1-5.99 6.48-14.61 10.5-23 13-2.22-.43-2.22-.43-4-1 2.1-1.15 4.21-2.29 6.31-3.44.6-.32 1.19-.65 1.81-.98 2.6-1.42 5.06-2.64 7.88-3.58v-2c-.45.35-.89.7-1.36 1.06-3.49 2.63-6.15 4.53-10.64 4.94v-2c.83-.39 1.65-.78 2.5-1.19 3.36-1.74 6.5-3.66 9.67-5.72C82 258 82 258 85 257"/><path fill="#4d5264" d="M53 250h9l-2 6c4.5-1.07 8.75-2.14 13-4v4h-2v2c-1.46.19-2.92.38-4.38.56-.81.11-1.62.21-2.46.32C62 259 62 259 60 258c-1.92-.02-3.83.01-5.75.06-4.5.05-8.07-.2-12.25-2.06v-1c.37-.02.37-.02 2.27-.15.98-.07 1.97-.15 2.98-.23.97-.06 1.95-.13 2.95-.21 2.7-.39 4.47-1.05 6.8-2.41h-4Z"/></svg>