<svg xmlns="http://www.w3.org/2000/svg" width="248" height="190"><path fill="#11203e" d="M88.313 1.688c4.98 2.91 8.93 6.35 12.62 10.73 5.05 5.81 10.55 11.17 16 16.58 1.08 1.07 2.16 2.15 3.23 3.22 2.61 2.6 5.22 5.19 7.84 7.78 7.5-3.54 12.78-10.68 18.11-16.89 3.77-4.22 7.86-8.14 11.89-12.11.88-.89 1.77-1.78 2.68-2.69 4.38-4.36 8.26-7.12 14.65-7.42 5.63.25 9.67 1.5 13.97 5.22 5.62 6.27 6.04 12.94 5.7 21.02l-.09 2.28c-.6 8.18-3.72 14-9.72 19.59-3.08 2.95-6.05 5.88-8.82 9.13-2.96 3.46-6.13 6.66-9.39 9.85-2.6 2.66-4.98 5.48-7.34 8.36-1.64 1.66-1.64 1.66-5.64 3.66v-12c-4.25 3.31-7.71 6.85-11.2 10.94-8.52 9.75-8.52 9.75-13.99 10.5-8.05-.92-12.83-8.59-17.81-14.44-1.6-1.82-3.2-3.63-4.81-5.43-.75-.85-1.5-1.69-2.27-2.56-1.92-2.01-1.92-2.01-3.92-3.01l.09 1.81c2.2 44.54 2.2 44.54-1.09 62.19-.17.95-.34 1.89-.51 2.87-.41 2.06-.93 4.1-1.49 6.13l-2 1c-1 2.15-1 2.15-2 4.81-1.2 3.16-2.44 6.2-4 9.19h-2v-4c-.45.94-.9 1.88-1.36 2.85l-1.83 3.78c-.29.61-.58 1.23-.88 1.87-3.16 6.43-7.01 11.21-13 15.31-.83.59-1.67 1.17-2.53 1.77-2.2 1.3-3.91 1.98-6.4 2.42v-2c-.88.28-1.76.56-2.67.84-1.16.36-2.32.73-3.52 1.1l-3.48 1.09c-4.86 1.42-9.07 2.1-14.14 2.04l-2.96-.03c-.37-.01-.37-.01-2.23-.04v-2c1.28-.14 2.55-.29 3.87-.43 2.38-.27 3.97-.49 6.13-1.57l2 1 1-2 3-1v-2c.51-.19.51-.19 3.12-1.19 2.79-1.17 4.91-2.51 7.19-4.5 2.69-2.31 2.69-2.31 4.69-2.31v-2h-2v-3c-.46.45-.93.9-1.4 1.36-9.46 8.77-19.5 12.83-32.31 12.91-2.54-.3-4.04-1.06-6.29-2.27-2.87-1.04-5.75-2.02-8.64-3-2.36-1-2.36-1-3.36-3 .95.02 1.9.04 2.87.07 3.13-.07 3.13-.07 5.13-1.07-3.57-3.04-7.1-5.21-11.31-7.25-1.07-.52-2.14-1.04-3.24-1.58-.81-.38-1.62-.77-2.45-1.17v-2l8 2v-1l13-1 1-3 1-1h-14v-2c.61-.01 1.23-.03 1.87-.04 8.95-.5 15.06-3.39 21.13-10.02 2.22-2.6 3.39-4.55 4-7.94-.33.5-.33.5-2 3h-2c.98-2.72 1.88-4.84 3.69-7.12.43-.62.86-1.24 1.31-1.88l-1-3c-.52.87-1.03 1.74-1.57 2.63-2.53 3.83-5.86 6.54-9.43 9.37 0-3.69.9-4.44 3.12-7.31 15.56-21.87 18.77-52.56 24.13-78.38 1.06-5.11 2.12-10.21 3.2-15.32.43-2.01.84-4.02 1.25-6.04.13-.61.13-.61.78-3.7l.67-3.23c1.81-6.44 4.41-10.1 9.85-14.02 6.44-3.04 13.8-3.4 20.31-.31m-49.31 109.31 1 2Zm-1 2 1 2Zm-1 2 1 2Zm1 8 1 2Zm57 5v7h1v-7Zm-5 7 1 2Zm-1 4 1 2Zm-1 3 1 3Zm-72 18v1h5v-1Zm53 7-1 2 3-1Zm-35 1 4 1Zm-5 1v1h5v-1Zm35 2-3 3 5-2Z"/><path fill="#7146f3" d="M195 54c.09 13.81.16 27.63.21 41.44.02 6.41.05 12.83.09 19.24.05 6.19.07 12.39.08 18.58.01 2.36.02 4.72.04 7.08q.045 4.965.03 9.93c.01.49.01.49.05 2.94-.05 7.09-1.48 12.67-6.51 17.86-.69.5-1.39.99-2.11 1.5-.79.57-1.58 1.14-2.39 1.72-.82.56-1.64 1.13-2.49 1.71-.82.58-1.63 1.15-2.47 1.75-2.51 1.75-5.04 3.44-7.59 5.13-.85.58-1.7 1.16-2.57 1.75-5.22 3.45-9.05 5.35-15.37 5.37-4.08-2.04-6.33-3.77-8-8-.26-2.33-.26-2.33-.27-4.93l-.03-2.97v-3.18c-.01-1.09-.01-2.18-.01-3.3-.01-2.3-.01-4.6-.01-6.9.01-3.51-.02-7.02-.04-10.53v-6.71l-.03-3.17c.04-5.87.39-10.2 3.39-15.31 2.24-1.97 2.24-1.97 4.65-3.62 2.87-2.41 4.18-3.66 5.06-7.34.15-3.39.09-6.71-.09-10.1-.52-11.57-.52-11.57 1.84-15.17 1.76-1.75 3.57-3.26 5.54-4.77 1.14-1.28 2.27-2.56 3.38-3.88 3.29-3.82 6.82-7.34 10.42-10.89 2.67-2.71 5.15-5.55 7.63-8.43 5.94-6.8 5.94-6.8 7.57-6.8"/><path fill="#5589fc" d="M199 29c1.46.13 2.91.27 4.37.41.4.03.4.03 2.45.23 2.84.47 3.98 1.37 5.68 3.67.46.6.93 1.19 1.41 1.8 1.97 3.41 2.22 6.68 2.23 10.56.01.94.01 1.87.02 2.84v3.08c0 .54 0 .54.02 3.27.01 3.57.02 7.14.02 10.71.01 2.49.01 4.97.02 7.46.01 5.21.02 10.42.02 15.63 0 6.67.03 13.33.06 20 .02 5.13.02 10.26.02 15.4.01 2.45.01 4.91.03 7.37.01 3.44.01 6.89.01 10.33 0 .5 0 .5.02 3.06-.05 9.28-1.9 16.54-8.39 23.34-5.65 5.22-11.86 8.39-18.93 11.28-.33.13-.33.13-2.01.82-1.66.65-3.35 1.2-5.05 1.74l-2-1c.74-.51 1.47-1.02 2.23-1.54 8.7-6.13 14.3-10.84 16.77-21.46.42-4.29.44-8.55.43-12.86l.03-3.82c.03-3.43.04-6.85.05-10.28.01-3.59.03-7.18.06-10.78.04-6.78.07-13.57.09-20.36.03-7.74.07-15.47.12-23.2.09-15.9.16-31.8.22-47.7"/><path fill="#9fc2fd" d="M218 52c6.26.8 8.6 1.6 13 6 1.3 3.89 1.16 7.6 1.18 11.66 0 .88.01 1.77.02 2.68.02 2.93.03 5.86.04 8.8 0 1 .01 2 .01 3.03.02 5.31.04 10.62.05 15.92.01 5.48.04 10.95.08 16.42.03 4.22.03 8.43.04 12.65 0 2.01.01 4.03.03 6.05.03 2.83.03 5.65.02 8.48.01.83.03 1.66.04 2.51-.06 6.44-1.71 11.68-6.06 16.53-4.56 4.4-10.45 7.35-16.45 9.27l-3-1 2.25-2c5.22-5.2 7.85-12.05 7.91-19.35l.03-2.62c0-.94.01-1.88.02-2.85l.03-3.01c.03-3.29.05-6.58.08-9.87l.06-6.85.15-18.01c.05-6.12.11-12.25.16-18.38.11-12.02.21-24.04.31-36.06"/><path fill="#d8eafd" d="M236 75c5.36.66 7.45 1.85 11 6 1.4 2.8 1.15 5.15 1.18 8.28 0 .65.01 1.29.02 1.95.02 2.14.03 4.28.04 6.41 0 .73.01 1.46.01 2.21.02 3.87.04 7.73.05 11.6.01 3.98.04 7.97.08 11.95.03 3.07.03 6.14.04 9.21q0 2.205.03 4.41c.03 2.06.03 4.12.02 6.18 0 .59 0 .59.02 3.55-.75 4.98-3.26 8.05-6.8 11.5-3.24 2.1-5.95 2.87-9.69 3.75.24-.56.24-.56 1.47-3.38 2.51-7.59 2.01-15.66 2.04-23.56l.06-5.21c.04-4.54.07-9.08.1-13.63.03-4.64.08-9.29.12-13.93.09-9.1.15-18.19.21-27.29"/><path fill="#686c77" d="M30 147l-1 2c-2.45 7.36-2.45 7.36-1 11l6-1-2 6h-6v3c5.29.84 9.69 1.19 15 0l1-2h2l1-2c1.97-1.05 3.98-2.05 6-3 .78-.39 1.57-.78 2.38-1.19.53-.27 1.07-.53 1.62-.81l3 2c-9.22 7.41-18.92 11.54-30.88 11.34-2.39-.38-3.98-1.21-6.12-2.34-2.87-1.04-5.75-2.02-8.64-3C10 166 10 166 9 164l2.88.06C15 164 15 164 17 163c-3.57-3.04-7.1-5.21-11.31-7.25-1.07-.52-2.14-1.04-3.24-1.58-.81-.38-1.62-.77-2.45-1.17v-2l8 2v-1c2.14-.16 2.14-.16 13-1l1-3c2.96-2.04 4.64-2.2 8-1m-14 13v1h5v-1Z"/><path fill="#444b5e" d="M67 154c1.43 4.3 2.2 8.45 2 13-4.77 7.31-14.86 9.56-22.91 11.47-4.72.81-9.33.78-14.09.53v-2c1.28-.14 2.56-.29 3.88-.44 2.38-.27 3.96-.48 6.12-1.56l2 1 1-2 3-1v-2c1.03-.39 2.06-.78 3.12-1.19 2.79-1.17 4.91-2.51 7.19-4.5C61 163 61 163 63 163v-2h-2c1.48-4.68 1.48-4.68 4.12-6.31.62-.23 1.24-.46 1.88-.69"/><path fill="#9570f3" d="M148 126l4 2-1 1c-.09 1.6-.12 3.2-.11 4.8v3.09c0 1.11.01 2.22.01 3.36 0 .57 0 .57.01 3.43 0 3.63.01 7.25.03 10.88 0 2.45.01 4.91.01 7.36.01 6.03.03 12.05.05 18.08l-5 2c-.05-7.01-.09-14.02-.11-21.03-.01-2.39-.02-4.77-.04-7.16-.03-3.43-.04-6.86-.05-10.29l-.03-3.22c0-5.17.14-9.47 2.23-14.3"/><path fill="#494e5e" d="M30 147l-1 2c-2.29 6.87-2.29 6.87-1 11-10.75-.03-18.61-1.19-28-7v-2l8 2v-1c2.14-.16 2.14-.16 13-1l1-3c2.96-2.04 4.64-2.2 8-1"/><path fill="#7d59ed" d="M195 54v107h-1l-1-103-3 5c-2.69.81-2.69.81-5 1 .94-1.11 1.87-2.21 2.81-3.31.52-.62 1.05-1.23 1.58-1.87C193.64 54 193.64 54 195 54"/><path fill="#6236f0" d="M193 57h1v100h-1V64l-8 2v-2l5-1c.12-.62.25-1.24.38-1.88C191 59 191 59 193 57"/><path fill="#8e9098" d="M86 153h2c-.55 3.37-1.05 5.08-3 8h-2c1.88-6.88 1.88-6.88 3-8"/></svg>